<svg width="58" height="50" viewBox="0 0 58 50" fill="none" xmlns="http://www.w3.org/2000/svg"><path d="M30.236 1.824a1.67 1.67 0 10-3.34 0V8.98a1.67 1.67 0 103.34 0V1.824zM20.23 11.95a1.665 1.665 0 002.362 0 1.67 1.67 0 000-2.362l-3.578-3.577a1.67 1.67 0 10-2.361 2.362l3.578 3.577zm15.49.489c.428 0 .855-.164 1.181-.49l3.578-3.577a1.67 1.67 0 00-2.362-2.361L34.54 9.588a1.67 1.67 0 001.18 2.85zm-11.985 3.848l-.05.042-7.22 6.189a3.7 3.7 0 01-2.405.89H8.889A8.818 8.818 0 00.066 32.23v16.1c0 .922.747 1.67 1.67 1.67h14.309a1.67 1.67 0 001.67-1.67V33l8.497-7.284c.434-.371.684-.915.684-1.486v-6.411c0-1.631-1.894-2.559-3.161-1.532zm24.508 7.12h-5.17a3.699 3.699 0 01-2.407-.89l-7.22-6.188-.05-.042c-1.266-1.027-3.16-.1-3.16 1.532v6.411c0 .571.25 1.115.683 1.486L39.417 33v15.33c0 .922.747 1.67 1.67 1.67h14.309a1.67 1.67 0 001.67-1.67v-16.1c0-4.88-3.95-8.823-8.823-8.823z" fill="#1F37FF"/><path d="M15.926 16.37A7.044 7.044 0 008.89 9.336a7.044 7.044 0 00-7.036 7.036 7.044 7.044 0 007.036 7.036 7.044 7.044 0 007.036-7.036zm39.351 0a7.044 7.044 0 00-7.036-7.035 7.044 7.044 0 00-7.035 7.036 7.044 7.044 0 007.035 7.036 7.044 7.044 0 007.036-7.036z" fill="#1F37FF"/></svg>