<svg width="47" height="57" viewBox="0 0 47 57" fill="none" xmlns="http://www.w3.org/2000/svg"><path d="M17.125 10.54c.921 0 1.668-.746 1.668-1.668V1.725c-.088-2.214-3.249-2.212-3.336 0v7.147c0 .922.747 1.669 1.668 1.669zm-8.327-.487a1.668 1.668 0 102.36-2.36L9.37 5.907a1.668 1.668 0 10-2.359 2.359l1.787 1.787zm16.654 0l1.787-1.787a1.668 1.668 0 10-2.36-2.36l-1.786 1.787a1.668 1.668 0 102.36 2.36zm11.812 15.485a2.438 2.438 0 000-3.45 2.438 2.438 0 00-3.45 0l-5.809 5.81a2.442 2.442 0 000 3.45c.952.95 2.5.95 3.45 0l5.81-5.81zm0 11.618l4.357-4.357a2.438 2.438 0 000-3.45 2.438 2.438 0 00-3.45 0l-4.357 4.357a2.438 2.438 0 103.45 3.45zm8.714-.545a2.439 2.439 0 00-3.45 0l-2.904 2.904a2.438 2.438 0 103.449 3.45l2.905-2.904v-.001a2.439 2.439 0 000-3.449z" fill="#1F37FF"/><path d="M35.573 41.24v-.033a5.733 5.733 0 01-4.118-1.69 5.76 5.76 0 01-1.688-4.122 5.753 5.753 0 01-4.12-1.688 5.783 5.783 0 01-.001-8.168L41.62 9.564c.911-.912.987-2.464.007-3.445-.816-.816-2.365-1.096-3.456-.005L17.568 26.718l.272.273c4.654 4.654 4.654 12.227 0 16.881a1.668 1.668 0 11-2.36-2.359c3.354-3.353 3.354-8.81 0-12.163l-1.452-1.454a1.665 1.665 0 01-.445-.802l-1.91-8.272a4.368 4.368 0 00-5.757-3.117 1.67 1.67 0 00-1.094 1.569l.023 23.603-4.29 4.289a1.668 1.668 0 000 2.36L9.54 56.51c.313.313.737.489 1.18.489h16.458c1.2 0 2.327-.468 3.176-1.317l9.015-9.014a5.748 5.748 0 01-2.106-1.345 5.736 5.736 0 01-1.69-4.083z" fill="#1F37FF"/></svg>