<svg width="58" height="57" viewBox="0 0 58 57" fill="none" xmlns="http://www.w3.org/2000/svg"><path d="M28.572 16.378a6.307 6.307 0 00-6.3 6.3c0 3.474 2.826 6.3 6.3 6.3a6.306 6.306 0 006.299-6.3c0-3.474-2.826-6.3-6.299-6.3z" fill="#1F37FF"/><path d="M57.077 25.335a3.05 3.05 0 00-2.7-3.026l-3.235-.378a22.995 22.995 0 00-1.953-4.805l1.992-2.517a3.063 3.063 0 00-.23-4.05l-4.27-4.27a3.026 3.026 0 00-2.153-.893c-.685 0-1.359.235-1.898.663L40.2 7.985a23 23 0 00-5.084-2.13L34.748 2.7A3.053 3.053 0 0031.721 0h-6.056a3.05 3.05 0 00-3.026 2.7l-.368 3.155a22.95 22.95 0 00-5.227 2.21l-2.53-2.006a3.056 3.056 0 00-4.051.229l-4.28 4.28a3.05 3.05 0 00-.23 4.051l2.134 2.7a22.574 22.574 0 00-1.917 4.855l-3.405.389a3.051 3.051 0 00-2.698 3.025l-.001 6.057a3.054 3.054 0 002.7 3.026l3.62.42a23.494 23.494 0 001.851 4.398L5.953 42.37a3.063 3.063 0 00.23 4.051l4.28 4.28c.576.576 1.34.893 2.153.893a3.07 3.07 0 001.898-.663l2.859-2.263c1.457.812 3 1.464 4.593 1.943l.43 3.69a3.052 3.052 0 003.026 2.7h6.056a3.052 3.052 0 003.026-2.701l.41-3.538a23.377 23.377 0 004.956-2.004l2.76 2.183a3.052 3.052 0 004.051-.23l4.28-4.28a3.049 3.049 0 00.23-4.05l-2.141-2.716a22.872 22.872 0 002.039-4.87l3.289-.377a3.053 3.053 0 002.7-3.027l-.002-6.056zM22.116 38.878v4.442a16.162 16.162 0 01-2.478-1.353l2.478-3.089zm12.91 0l2.479 3.089c-.781.52-1.61.973-2.478 1.353v-4.442zm.373-7.985a2.65 2.65 0 00-2.18-1.141h-9.296c-.87 0-1.685.426-2.172 1.13l-5.895 7.59a16.087 16.087 0 01-3.45-9.972c0-8.914 7.252-16.166 16.166-16.166 8.914 0 16.166 7.252 16.166 16.166 0 3.76-1.29 7.223-3.45 9.972L35.4 30.893z" fill="#1F37FF"/></svg>