<svg width="55" height="57" viewBox="0 0 55 57" fill="none" xmlns="http://www.w3.org/2000/svg"><path d="M34.063 49.81v1.666a2.641 2.641 0 01-2.24 2.615l-.41 1.513A1.883 1.883 0 0129.595 57h-4.07a1.883 1.883 0 01-1.818-1.396l-.399-1.513a2.653 2.653 0 01-2.251-2.627V49.8c0-.892.715-1.607 1.606-1.607h9.794a1.62 1.62 0 011.606 1.618zm7.542-22.448c0 3.789-1.502 7.225-3.941 9.747a12.876 12.876 0 00-3.448 6.99 2.322 2.322 0 01-2.299 1.958h-8.714c-1.138 0-2.123-.82-2.287-1.947-.41-2.615-1.619-5.102-3.472-7.013a13.982 13.982 0 01-3.917-9.582 14.001 14.001 0 0113.945-14.192c7.8-.058 14.133 6.252 14.133 14.04zM29.149 18.86c0-.868-.704-1.583-1.583-1.583-5.583 0-10.133 4.539-10.133 10.133a1.584 1.584 0 003.166 0c0-3.847 3.132-6.966 6.967-6.966.88 0 1.583-.704 1.583-1.584zM27.566 8.714c.868 0 1.583-.704 1.583-1.583V1.583a1.584 1.584 0 00-3.166 0v5.548c0 .88.715 1.583 1.583 1.583zM8.93 27.35c0-.867-.704-1.583-1.584-1.583H1.8a1.584 1.584 0 000 3.167h5.547c.88 0 1.584-.704 1.584-1.584zm44.403-1.583h-5.547a1.584 1.584 0 000 3.167h5.547a1.584 1.584 0 000-3.167zM12.155 40.533l-3.93 3.93a1.579 1.579 0 102.23 2.24l3.928-3.93a1.579 1.579 0 000-2.24 1.565 1.565 0 00-2.228 0zm29.708-25.896c.398 0 .809-.152 1.114-.457l3.929-3.93a1.579 1.579 0 000-2.24 1.579 1.579 0 00-2.24 0l-3.93 3.93a1.579 1.579 0 000 2.24c.318.305.716.457 1.127.457zm-29.708-.47c.305.306.715.458 1.114.458a1.579 1.579 0 001.114-2.698L10.454 8a1.579 1.579 0 00-2.24 0 1.579 1.579 0 000 2.24l3.94 3.929zm30.822 26.366a1.579 1.579 0 00-2.24 0 1.579 1.579 0 000 2.24l3.929 3.93c.305.304.715.457 1.114.457a1.579 1.579 0 001.114-2.698l-3.917-3.929z" fill="#fff"/></svg>