<svg width="19" height="18" viewBox="0 0 19 18" fill="none" xmlns="http://www.w3.org/2000/svg"><path d="M18.202 5.19c-.04-.917-.189-1.548-.401-2.095-.22-.58-.557-1.1-1-1.532a4.252 4.252 0 00-1.528-.996c-.55-.213-1.178-.361-2.096-.402-.925-.044-1.219-.054-3.564-.054-2.346 0-2.64.01-3.561.051-.918.04-1.55.189-2.096.402-.58.219-1.1.556-1.533.999-.438.432-.78.955-.995 1.529-.213.55-.361 1.177-.402 2.095-.044.925-.054 1.219-.054 3.565 0 2.345.01 2.639.05 3.56.041.918.19 1.55.403 2.097.219.58.56 1.1.998 1.532.433.438.956.78 1.53.995.55.213 1.177.361 2.095.402.922.04 1.216.05 3.561.05 2.346 0 2.64-.01 3.561-.05.918-.04 1.55-.189 2.096-.402a4.42 4.42 0 002.528-2.527c.212-.55.361-1.179.402-2.097.04-.921.05-1.215.05-3.56 0-2.346-.003-2.64-.044-3.561zm-1.556 7.055c-.037.844-.178 1.3-.297 1.603a2.866 2.866 0 01-1.64 1.64c-.304.119-.763.26-1.603.298-.912.04-1.185.05-3.49.05s-2.582-.01-3.49-.05c-.844-.038-1.3-.18-1.603-.297a2.658 2.658 0 01-.992-.645 2.685 2.685 0 01-.645-.992c-.118-.304-.26-.763-.297-1.604-.04-.91-.05-1.184-.05-3.49 0-2.305.01-2.582.05-3.49.037-.843.179-1.299.297-1.603a2.63 2.63 0 01.648-.992c.28-.287.618-.506.992-.645.304-.118.763-.26 1.603-.297.912-.04 1.185-.05 3.49-.05 2.309 0 2.582.01 3.49.05.844.038 1.3.18 1.603.297.375.139.716.358.993.645.287.28.506.618.644.992.119.304.26.763.297 1.604.04.91.051 1.184.051 3.49 0 2.305-.01 2.575-.05 3.486z" fill="#fff"/><path d="M9.613 4.313a4.44 4.44 0 000 8.877 4.44 4.44 0 000-8.877zm0 7.318a2.88 2.88 0 110-5.76 2.88 2.88 0 010 5.76zm5.65-7.493a1.036 1.036 0 11-2.073 0 1.036 1.036 0 012.073 0z" fill="#fff"/></svg>