<svg width="201" height="32" viewBox="0 0 201 32" fill="none" xmlns="http://www.w3.org/2000/svg"><path d="M184.066 0l3.592 11.056h11.625l-9.405 6.833 3.592 11.055-9.404-6.832-9.405 6.832 3.593-11.055-9.405-6.833h11.625L184.066 0z" fill="#FFF9C7"/><path d="M142.066 0l3.592 11.056h11.625l-9.405 6.833 3.592 11.055-9.404-6.832-9.405 6.832 3.593-11.055-9.405-6.833h11.625L142.066 0zm-42 0l3.592 11.056h11.625l-9.405 6.833 3.592 11.055-9.404-6.832-9.405 6.832 3.593-11.055-9.405-6.833h11.625L100.066 0zm-42 0l3.592 11.056h11.625l-9.405 6.833 3.593 11.055-9.405-6.832-9.405 6.832 3.593-11.055-9.405-6.833h11.625L58.066 0zm-42 0l3.592 11.056h11.625l-9.405 6.833 3.593 11.055-9.405-6.832-9.405 6.832 3.593-11.055-9.405-6.833h11.625L16.066 0z" fill="#FFE816"/></svg>