<svg width="18" height="15" viewBox="0 0 18 15" fill="none" xmlns="http://www.w3.org/2000/svg"><path d="M17.706 2.42c-.64.28-1.32.466-2.031.556a3.505 3.505 0 001.55-1.948 7.043 7.043 0 01-2.235.853 3.524 3.524 0 00-6.097 2.41c0 .28.024.548.082.804A9.977 9.977 0 011.71 1.408a3.549 3.549 0 00-.483 1.782 3.53 3.53 0 001.566 2.93A3.48 3.48 0 011.2 5.684v.039a3.541 3.541 0 002.824 3.463c-.287.079-.6.116-.924.116-.225 0-.453-.013-.667-.06a3.558 3.558 0 003.294 2.455 7.082 7.082 0 01-4.37 1.504 6.5 6.5 0 01-.844-.049 9.923 9.923 0 005.407 1.582c6.486 0 10.032-5.373 10.032-10.03 0-.156-.005-.306-.013-.456a7.033 7.033 0 001.767-1.83z" fill="#fff"/></svg>