<svg width="20" height="15" viewBox="0 0 20 15" fill="none" xmlns="http://www.w3.org/2000/svg"><path d="M10.108 14.502h-.005c-.563-.004-5.548-.05-6.96-.431a2.888 2.888 0 01-2.033-2.03C.74 10.652.764 7.98.767 7.767c-.003-.212-.027-2.905.342-4.304l.001-.004a2.95 2.95 0 012.03-2.044l.007-.002c1.397-.367 6.391-.412 6.956-.416h.01c.566.004 5.564.05 6.963.432a2.887 2.887 0 012.03 2.028c.383 1.4.348 4.099.344 4.326.003.225.025 2.872-.342 4.266l-.001.004a2.889 2.889 0 01-2.034 2.031l-.003.001c-1.397.367-6.392.412-6.957.416h-.005zM2.52 3.84c-.324 1.234-.294 3.893-.293 3.92v.02c-.01.736.024 2.872.293 3.883.13.485.515.868 1.002 1 1.042.281 5.102.37 6.586.38 1.488-.01 5.554-.096 6.588-.367a1.425 1.425 0 001-.999c.27-1.026.304-3.151.294-3.884V7.77c.014-.746-.013-2.906-.292-3.926V3.84a1.424 1.424 0 00-1.004-1.001c-1.032-.282-5.098-.37-6.586-.381-1.486.01-5.548.097-6.586.367-.478.132-.87.53-1.002 1.014zm15.882 8.025zM8.248 10.706V4.794l5.11 2.956-5.11 2.956z" fill="#fff"/></svg>